<?xml version="1.0" standalone="no"?><!DOCTYPE svg PUBLIC "-//W3C//DTD SVG 1.1//EN" "http://www.w3.org/Graphics/SVG/1.1/DTD/svg11.dtd"><svg t="1584429503237" class="icon" viewBox="0 0 1024 1024" version="1.1" xmlns="http://www.w3.org/2000/svg" p-id="1479" xmlns:xlink="http://www.w3.org/1999/xlink" width="24" height="24"><defs><style type="text/css"></style></defs><path d="M654.1824 411.2384c-6.4512 0-11.7248 5.2736-11.7248 11.7248v412.8768a11.7248 11.7248 0 1 0 23.4496 0V422.9632c0-6.4512-5.2736-11.7248-11.7248-11.7248z m0 0c-6.4512 0-11.7248 5.2736-11.7248 11.7248v412.8768a11.7248 11.7248 0 1 0 23.4496 0V422.9632c0-6.4512-5.2736-11.7248-11.7248-11.7248z m0 0c-6.4512 0-11.7248 5.2736-11.7248 11.7248v412.8768a11.7248 11.7248 0 1 0 23.4496 0V422.9632c0-6.4512-5.2736-11.7248-11.7248-11.7248z m0 0c-6.4512 0-11.7248 5.2736-11.7248 11.7248v412.8768a11.7248 11.7248 0 1 0 23.4496 0V422.9632c0-6.4512-5.2736-11.7248-11.7248-11.7248zM581.0176 422.9632v122.3168a11.7248 11.7248 0 1 1-23.4496 0V422.9632c0-6.4512 5.2736-11.7248 11.7248-11.7248s11.7248 5.2736 11.7248 11.7248z" fill="#383838" p-id="1480"></path><path d="M665.9072 422.9632v412.8768a11.7248 11.7248 0 1 1-23.4496 0V422.9632c0-6.4512 5.2736-11.7248 11.7248-11.7248s11.7248 5.2736 11.7248 11.7248zM750.7968 422.9632v412.8768a11.68384 11.68384 0 0 1-11.7248 11.7248c-4.7104 0-8.8064-2.816-10.6496-6.8096-0.7168-1.4848-1.0752-3.1232-1.0752-4.9152V422.9632a11.7248 11.7248 0 1 1 23.4496 0zM449.792 704.9728a44.91776 44.91776 0 0 0-13.6704-10.3424c-4.4032-2.2016-9.0624-3.6864-13.6704-4.352l-1.1264-0.1536c-13.7728-1.7408-29.2352 2.8672-39.9872 15.5648-10.7008-12.6976-26.2144-17.3056-39.9872-15.5648-19.5584 2.4576-40.6016 18.6368-40.6016 48.384 0 22.6304 12.8 46.5408 37.9392 71.1168 17.8688 17.408 35.584 28.7744 36.3008 29.2352a11.70432 11.70432 0 0 0 12.5952 0c0.7168-0.4608 17.4592-11.1616 34.7648-27.7504 0.512-0.4608 0.9728-0.9728 1.4848-1.4336 4.4544-4.352 8.4992-8.6528 12.1856-12.9536 5.4272-6.2976 9.984-12.5952 13.6704-18.7904 8.0384-13.4656 12.1344-26.624 12.1344-39.424 0.1024-14.336-4.7616-25.4976-12.032-33.536z m-13.6704 46.9504c-2.7136 8.2432-7.68 16.4864-13.6704 24.32-12.4416 16.128-29.44 30.2592-41.1136 38.5536-20.3264-14.4896-57.088-46.848-57.088-76.3392 0-15.616 10.0864-23.8592 20.0704-25.088 0.9216-0.1024 1.8432-0.1536 2.7648-0.1536 8.8064 0 18.688 5.2736 22.4768 20.3776A11.7248 11.7248 0 0 0 380.928 742.4h0.8192c5.376 0 10.0352-3.6352 11.3664-8.8064 4.2496-16.6912 15.8208-21.3504 25.2928-20.1728 1.3312 0.1536 2.7136 0.4608 4.0448 0.9216 5.632 1.792 10.8032 5.888 13.6704 12.3904 1.4848 3.328 2.3552 7.2704 2.3552 11.8272 0 4.352-0.8192 8.8576-2.3552 13.3632z" fill="#383838" p-id="1481"></path><path d="M866.1504 335.1552h-146.8416V203.8272h16.7424c6.4512 0 11.7248-5.2736 11.7248-11.7248V146.432c0-6.4512-5.2736-11.7248-11.7248-11.7248H566.272a11.7248 11.7248 0 0 0-11.7248 11.7248v45.7216a11.7248 11.7248 0 0 0 11.7248 11.7248h20.224v131.2768H436.1216c-7.5776 0-13.6704 6.0928-13.6704 13.6704v164.352H327.4752c-5.4784 0-10.4448 3.2768-12.5952 8.3456l-25.3952 59.9552H168.8576a13.6704 13.6704 0 0 0-13.6704 13.6704v340.1728c0 7.5776 6.0928 13.6704 13.6704 13.6704H593.92c7.5776 0 13.6704-6.0928 13.6704-13.6704v-24.3712h75.5712c6.144 25.1392 28.8256 43.8272 55.8592 43.8272 26.9824 0 49.7152-18.688 55.8592-43.8272h71.2192a13.6704 13.6704 0 0 0 13.6704-13.6704V348.8256a13.5936 13.5936 0 0 0-13.6192-13.6704z m-288.1536-154.7264v-22.272h146.2784v22.272h-146.2784z m117.8112 23.3984v131.2768h-85.9136V203.8272h85.9136z m-359.2704 336.64h89.7024l9.9328 23.3984 7.424 17.5616h-124.416l17.3568-40.96z m243.712 381.1328h-64.6144v-272.64a11.7248 11.7248 0 1 0-23.4496 0V921.6H264.1408v-272.64a11.7248 11.7248 0 1 0-23.4496 0V921.6H182.528v-312.832h397.7216V921.6z m158.8224 5.8368c-11.7248 0-21.9136-6.7072-26.88-16.4864h53.76c-5.0176 9.728-15.2064 16.4864-26.88 16.4864z m113.408-43.8784h-244.8384v-288.4608a13.6704 13.6704 0 0 0-13.6704-13.6704H473.2928l-23.4496-55.3472V362.496h402.6368v521.0624z" p-id="1482"></path></svg>