<?xml version="1.0" standalone="no"?><!DOCTYPE svg PUBLIC "-//W3C//DTD SVG 1.1//EN" "http://www.w3.org/Graphics/SVG/1.1/DTD/svg11.dtd"><svg t="1584429508974" class="icon" viewBox="0 0 1024 1024" version="1.1" xmlns="http://www.w3.org/2000/svg" p-id="1618" xmlns:xlink="http://www.w3.org/1999/xlink" width="24" height="24"><defs><style type="text/css"></style></defs><path d="M645.0176 311.9104H228.6592c-7.5776 0-13.6704 6.0928-13.6704 13.6704a13.6704 13.6704 0 0 0 13.6704 13.6704h416.4096c7.5776 0 13.6704-6.144 13.6704-13.6704a13.71136 13.71136 0 0 0-13.7216-13.6704z" fill="#383838" p-id="1619"></path><path d="M807.4752 459.264h-82.6368V276.5824c0-22.8352-18.5344-41.3696-41.3696-41.3696h-484.864c-22.784 0-41.3696 18.5344-41.3696 41.3696v239.9232c0 22.8352 18.5344 41.3696 41.3696 41.3696h11.8272l-35.4816 77.312c-2.4576 5.4272-1.1776 11.776 3.1744 15.8208 2.6112 2.3552 5.888 3.584 9.216 3.584 2.304 0 4.6592-0.6144 6.7584-1.792l87.0912-49.7152v137.5232c0 22.784 18.5344 41.3696 41.3696 41.3696h318.6688c0.4096 0.3072 0.8704 0.5632 1.3312 0.8704l157.9008 90.0608a13.63968 13.63968 0 0 0 15.9744-1.792c4.4032-4.0448 5.6832-10.3936 3.2256-15.8208l-33.6896-73.3696h21.4528c22.8352 0 41.3696-18.5344 41.3696-41.3696V500.6336c0.0512-22.8352-18.4832-41.3696-41.3184-41.3696zM281.2416 571.5968l-63.6928 36.352 19.968-43.4176h43.776v7.0656z m0-70.9632v29.9008H198.6048c-7.7312 0-14.0288-6.2464-14.0288-14.0288V276.5824c0-7.7312 6.2976-14.0288 14.0288-14.0288h484.864c7.7312 0 14.0288 6.2464 14.0288 14.0288V459.264H322.6112c-22.784 0-41.3696 18.5344-41.3696 41.3696z m419.7376 283.9552h56.2176l19.968 43.4176-76.1856-43.4176z m120.5248-44.032c0 7.7312-6.2976 14.0288-14.0288 14.0288h-484.864c-7.7312 0-14.0288-6.2976-14.0288-14.0288V500.6336c0-7.7312 6.2976-14.0288 14.0288-14.0288h484.864c7.7312 0 14.0288 6.2976 14.0288 14.0288v239.9232z" fill="#383838" p-id="1620"></path><path d="M676.6592 557.8752c-1.7408-4.9664-3.9424-9.5744-6.5536-13.6704-3.2768-5.2736-7.2704-9.8304-11.6736-13.6704a65.44384 65.44384 0 0 0-34.7136-15.7696c-16.896-2.0992-35.584 2.56-50.0736 15.7696-3.072 2.816-5.9904 6.0416-8.6528 9.6256-2.6624-3.6352-5.5296-6.8096-8.6528-9.6256-14.4896-13.2096-33.1776-17.8688-50.0736-15.7696-12.0832 1.536-24.576 6.7584-34.7136 15.7696-4.4032 3.8912-8.3456 8.3968-11.6736 13.6704-2.6112 4.096-4.8128 8.704-6.5536 13.6704-2.5088 7.3216-3.9424 15.616-3.9424 24.832 0 75.7248 103.7824 142.6432 108.2368 145.4592 2.2528 1.4336 4.8128 2.1504 7.3216 2.1504 2.56 0 5.12-0.7168 7.3216-2.1504 4.4032-2.816 108.2368-69.7344 108.2368-145.4592 0.1024-9.216-1.3312-17.5104-3.84-24.832z m-69.888 107.5712c-16.2304 15.872-32.6656 28.2112-41.7792 34.6624-30.1056-20.992-88.1664-71.0656-88.1664-117.4528 0-10.1888 2.6624-18.432 6.9632-24.832a36.6336 36.6336 0 0 1 16.9472-13.6704c2.9184-1.1776 5.9904-1.9456 9.0112-2.304 1.6896-0.2048 3.328-0.3072 4.9152-0.3072 4.864 0 9.216 0.9728 13.1072 2.6112 6.7584 2.8672 12.032 7.8336 15.9744 13.6704 3.5328 5.1712 5.9904 11.008 7.424 16.64 1.536 6.0416 7.0144 10.2912 13.2608 10.2912h1.2288c6.2464 0 11.7248-4.2496 13.2608-10.2912 1.4336-5.632 3.8912-11.4688 7.3728-16.64 3.9424-5.8368 9.3184-10.8032 16.0256-13.6704 5.1712-2.2016 11.1616-3.1744 18.0224-2.304 3.0208 0.3584 6.0928 1.1776 9.0112 2.304a36.7616 36.7616 0 0 1 16.896 13.6704c4.3008 6.3488 6.9632 14.6432 6.9632 24.832 0.0512 30.8224-25.2416 62.0544-46.4384 82.7904zM658.688 325.5808a13.6704 13.6704 0 0 1-13.6704 13.6704H228.6592a13.6704 13.6704 0 0 1-13.6704-13.6704c0-7.5776 6.0928-13.6704 13.6704-13.6704h416.4096c7.5264 0 13.6192 6.0928 13.6192 13.6704zM471.296 404.6336c0 7.5776-6.144 13.6704-13.6704 13.6704H228.6592a13.6704 13.6704 0 1 1 0-27.3408h228.9664c7.5264 0 13.6704 6.144 13.6704 13.6704z" fill="#383838" p-id="1621"></path></svg>